<?xml version="1.0" encoding="UTF-8"?>
<svg width="20px" height="16px" viewBox="0 0 20 16" version="1.1" xmlns="http://www.w3.org/2000/svg" xmlns:xlink="http://www.w3.org/1999/xlink">
    <!-- Generator: Sketch 63.1 (92452) - https://sketch.com -->
    <title>Mask 2</title>
    <desc>Created with Sketch.</desc>
    <defs>
        <path d="M58.6432935,45.5300795 C59.4905081,45.030228 60.1411537,44.2385745 60.447456,43.2954028 C59.6546692,43.7583109 58.7765097,44.0944018 57.8418742,44.2755898 C57.0934197,43.4905616 56.0269578,43 54.8468854,43 C52.5806723,43 50.7435166,44.8085679 50.7435166,47.0391398 C50.7435166,47.3557868 50.7798017,47.6640081 50.8497385,47.959627 C47.4395918,47.7911854 44.4161454,46.1831054 42.3923699,43.7393711 C42.0391016,44.3359379 41.8368265,45.0297959 41.8368265,45.7700312 C41.8368265,47.1713581 42.5612129,48.4077001 43.6622042,49.1320923 C42.9896119,49.1111361 42.3568894,48.9293719 41.803687,48.6268397 C41.8033944,48.6436911 41.8033213,48.6606145 41.8033213,48.6776098 C41.8033213,50.6346713 43.217711,52.2672362 45.0948096,52.638326 C44.7504664,52.7305764 44.3879805,52.7799062 44.0137898,52.7799062 C43.7493325,52.7799062 43.492337,52.7546292 43.2417791,52.7075318 C43.7639636,54.3122271 45.2792348,55.4800835 47.074765,55.512706 C45.6704708,56.5960176 43.9012766,57.2416981 41.9788215,57.2416981 C41.6476462,57.2416981 41.3210066,57.2226143 41,57.1853109 C42.8159406,58.3313469 44.972713,59 47.2899155,59 C54.837302,59 58.9644464,52.8452232 58.9644464,47.507521 C58.9644464,47.3323821 58.9604228,47.1581795 58.9525952,46.984985 C59.7542339,46.4154957 60.4498701,45.7040661 61,44.8940489 C60.2641282,45.2153048 59.4733897,45.4325001 58.6432935,45.5300795 Z" id="path-1"></path>
    </defs>
    <g id="Library" stroke="none" stroke-width="1" fill="none" fill-rule="evenodd">
        <g id="Icon-/-Twitter" transform="translate(-41.000000, -43.000000)">
            <mask id="mask-2" fill="white">
                <use xlink:href="#path-1"></use>
            </mask>
            <use id="Mask-2" fill="#FFFFFF" xlink:href="#path-1"></use>
        </g>
    </g>
</svg>